<svg width="49" height="21" viewBox="0 0 49 21" fill="none" xmlns="http://www.w3.org/2000/svg">
<path d="M6.71996 17.328C5.37596 17.328 4.19996 17.048 3.19196 16.488C2.18396 15.928 1.39996 15.144 0.83996 14.136C0.27996 13.128 -3.99947e-05 11.944 -3.99947e-05 10.584C-3.99947e-05 9.22404 0.27996 8.04804 0.83996 7.05604C1.39996 6.04804 2.17596 5.26404 3.16796 4.70404C4.17596 4.12804 5.35196 3.84004 6.69596 3.84004C8.03996 3.84004 9.19996 4.12804 10.176 4.70404C11.168 5.26404 11.928 6.07204 12.456 7.12804C12.984 8.18404 13.248 9.44004 13.248 10.896V11.664H4.27196C4.31996 12.56 4.56796 13.232 5.01596 13.68C5.47996 14.112 6.07196 14.328 6.79196 14.328C7.33596 14.328 7.79196 14.224 8.15996 14.016C8.52796 13.792 8.79196 13.432 8.95196 12.936L13.08 13.176C12.728 14.52 11.984 15.552 10.848 16.272C9.71196 16.976 8.33596 17.328 6.71996 17.328ZM4.27196 9.31204H9.07196C9.03996 8.46404 8.80796 7.83204 8.37596 7.41604C7.94396 6.98404 7.38396 6.76804 6.69596 6.76804C6.03996 6.76804 5.48796 6.99204 5.03996 7.44004C4.60796 7.88804 4.35196 8.51204 4.27196 9.31204ZM15.2964 17.04V3.8147e-05H19.4244V8.88004L23.7204 4.12804H28.6164L23.6004 9.38404L28.7364 17.04H24.2724L20.9604 11.664L19.4244 13.296V17.04H15.2964ZM35.5018 20.928C34.1578 20.928 33.0538 20.776 32.1898 20.472C31.3418 20.168 30.6778 19.744 30.1978 19.2C29.7178 18.656 29.3738 18.04 29.1658 17.352L33.3898 17.04C33.5018 17.408 33.7098 17.688 34.0138 17.88C34.3338 18.088 34.8298 18.192 35.5018 18.192C36.2538 18.192 36.8298 18 37.2298 17.616C37.6298 17.232 37.8298 16.6 37.8298 15.72V14.568C37.5258 15.128 37.0378 15.584 36.3658 15.936C35.6938 16.288 34.9418 16.464 34.1098 16.464C33.0698 16.464 32.1418 16.208 31.3258 15.696C30.5258 15.184 29.8938 14.456 29.4298 13.512C28.9818 12.568 28.7578 11.456 28.7578 10.176C28.7578 8.94404 28.9818 7.85604 29.4298 6.91204C29.8938 5.95204 30.5258 5.20004 31.3258 4.65604C32.1258 4.11204 33.0538 3.84004 34.1098 3.84004C35.0698 3.84004 35.8618 4.04804 36.4858 4.46404C37.1098 4.88004 37.5898 5.42404 37.9258 6.09604V4.12804H42.0058V15.648C42.0058 16.832 41.7258 17.816 41.1658 18.6C40.6058 19.384 39.8378 19.968 38.8618 20.352C37.8858 20.736 36.7658 20.928 35.5018 20.928ZM35.4538 13.56C36.2058 13.56 36.7978 13.264 37.2298 12.672C37.6618 12.064 37.8778 11.224 37.8778 10.152C37.8778 9.43204 37.7818 8.81604 37.5898 8.30404C37.3978 7.79204 37.1178 7.40004 36.7498 7.12804C36.3978 6.85604 35.9658 6.72004 35.4538 6.72004C34.6858 6.72004 34.0858 7.03204 33.6538 7.65604C33.2218 8.28004 33.0058 9.11204 33.0058 10.152C33.0058 11.192 33.2298 12.024 33.6778 12.648C34.1258 13.256 34.7178 13.56 35.4538 13.56Z" fill="white"/>
<path d="M44.2968 17.04V13.032H48.6168V17.04H44.2968Z" fill="#3B82F6"/>
</svg>
